<svg
              xmlns="http://www.w3.org/2000/svg"
              xmlns:xlink="http://www.w3.org/1999/xlink"
              width="53px"
              height="53px">
              <path
                fill-rule="evenodd"
                fill="rgb(242, 24, 24)"
                d="M48.993,39.619 C47.489,41.964 45.922,44.278 44.264,46.524 C42.877,48.400 40.872,49.144 39.024,49.000 C32.372,48.721 26.899,46.534 21.838,43.320 C12.578,37.442 5.602,29.674 1.643,19.503 C0.569,16.745 0.049,13.870 -0.001,10.915 C-0.040,8.635 0.916,6.857 2.833,5.583 C4.976,4.155 7.125,2.735 9.301,1.356 C11.595,-0.099 14.107,0.531 15.374,2.886 C17.163,6.210 18.918,9.552 20.658,12.899 C21.717,14.941 21.264,16.739 19.409,18.144 C19.313,18.217 19.216,18.288 19.119,18.360 C16.671,20.154 16.655,20.164 18.438,22.658 C21.022,26.274 24.200,29.294 28.020,31.657 C29.648,32.666 29.647,32.665 30.758,31.168 C31.067,30.752 31.373,30.332 31.696,29.925 C32.989,28.296 34.879,27.800 36.773,28.729 C40.355,30.487 43.915,32.290 47.453,34.129 C49.581,35.237 50.267,37.629 48.993,39.619 ZM45.321,36.699 C42.675,35.413 40.065,34.057 37.435,32.738 C34.774,31.403 34.759,31.403 32.970,33.775 C32.100,34.927 31.022,35.656 29.469,35.761 C28.857,35.582 28.185,35.506 27.643,35.207 C21.905,32.026 17.381,27.631 14.111,22.042 C13.090,20.297 13.585,18.296 15.200,17.040 C15.865,16.521 16.632,16.112 17.226,15.530 C17.502,15.261 17.704,14.588 17.550,14.286 C15.897,11.026 14.158,7.809 12.464,4.572 C12.097,3.872 11.663,3.780 11.013,4.207 C8.896,5.602 6.692,6.883 4.684,8.413 C3.993,8.941 3.386,10.085 3.430,10.915 C3.536,12.950 3.813,15.033 4.428,16.973 C7.121,25.461 12.552,32.126 19.537,37.621 C25.112,42.006 31.251,45.269 38.626,45.688 C39.958,45.764 41.013,45.392 41.762,44.292 C43.107,42.316 44.440,40.331 45.801,38.365 C46.335,37.591 46.199,37.125 45.321,36.699 ZM41.972,6.294 L33.526,6.294 L33.526,3.122 L45.059,3.122 L45.059,3.201 L45.221,3.201 L45.221,14.455 L41.972,14.455 L41.972,6.294 Z" />
            </svg>